<?xml version="1.0" encoding="utf-8"?>
<!-- Generator: Adobe Illustrator 24.3.0, SVG Export Plug-In . SVG Version: 6.00 Build 0)  -->
<svg version="1.1" id="Layer_1" xmlns="http://www.w3.org/2000/svg" xmlns:xlink="http://www.w3.org/1999/xlink" x="0px" y="0px"
	 viewBox="0 0 1920 1080" style="enable-background:new 0 0 1920 1080;" xml:space="preserve">
<style type="text/css">
	.st0{fill:#FFFFFF;}
</style>
<g>
	<g>
		<path class="st0" d="M0,554.99C0,370,0,185.01,0,0c640,0,1280,0,1920,0c0,257.38,0,514.69,0,772.01
			c-1.12-0.12-2.95,0.14-3.25-0.42c-2.62-4.94-7.08-7.94-10.93-11.7c-3.49-3.4-7.54-4.1-11.38-5.95c-2.93-1.41-6.05-2.72-8.48-4.78
			c-1.37-1.17-2.23-3.83-2.08-5.72c0.27-3.41,1.45-6.76,2.31-10.12c0.23-0.88,0.65-1.72,1.04-2.55c0.85-1.8,2.27-3.51,2.51-5.37
			c0.5-3.78,0.27-7.65,0.55-11.47c0.1-1.41,0.68-2.82,1.22-4.15c0.67-1.67,2.2-3.26,2.21-4.89c0.14-19.83,0.07-39.66,0.03-59.49
			c0-1.15,0.11-2.98-0.5-3.33c-4.55-2.58-2.61-6.99-3.3-10.64c-0.33-1.73-0.51-3.52-1.12-5.15c-0.72-1.9-2.14-3.57-2.72-5.5
			c-1.29-4.34-2.24-8.78-3.35-13.17c-0.07-0.27-0.33-0.65-0.57-0.71c-3.61-0.88-2.77-3.92-3.36-6.41c-0.36-1.51-1.75-2.77-2.61-4.18
			c-1.82-2.98-3.6-5.99-5.4-8.99c-0.46-0.76-0.9-1.52-1.39-2.26c-1.84-2.79-3.51-5.71-5.58-8.31c-4.04-5.04-8.08-10.11-12.56-14.75
			c-2.97-3.07-7.41-4.86-9.91-8.19c-2.63-3.51-4.6-6.76-9.5-7.43c-2.08-0.28-4.25-2.29-5.72-4.05c-2.37-2.85-3.95-6.41-8.37-6.74
			c-0.81-0.06-1.59-0.82-2.33-1.34c-2.37-1.68-4.53-3.75-7.1-5.02c-3.72-1.84-7.72-3.1-11.59-4.64c-0.26-0.1-0.4-0.48-0.64-0.67
			c-2.93-2.26-5.57-5.21-8.87-6.59c-4.44-1.87-9.39-2.53-14.12-3.71c-0.64-0.16-1.37-0.16-1.9-0.49c-3.47-2.19-6.67-4.96-10.39-6.55
			c-4.01-1.72-8.44-2.54-12.76-3.4c-4.57-0.91-9.12,0.19-13.59-3.59c-2.84-2.4-8.29-1.66-12.7-3.79c-5.72-2.77-12.8-2.05-19.43-3.94
			c-11.48-3.28-24.05-2.76-36.16-3.77c-2.49-0.21-5.19,0.45-7.45-0.31c-4.11-1.37-7.97-3.5-11.93-5.33
			c-0.12-0.06-0.16-0.28-0.25-0.43c-3.27-5.42-9.3-6.6-14.46-8.53c-3.95-1.48-6.43-6.31-11.48-5.08c-0.1,0.02-0.27-0.57-0.5-0.75
			c-2.97-2.21-5.66-5.49-8.99-6.36c-7.03-1.84-14.39-2.4-21.61-3.53c-1.23-0.19-2.47-0.52-3.63-0.99c-1.98-0.79-3.85-2.34-5.85-2.51
			c-5.64-0.47-11.32-0.32-16.98-0.57c-2.83-0.12-6.11,0.87-7.81-2.82c-0.25-0.53-1.82-0.53-2.79-0.65
			c-13.72-1.72-28.03,2.73-41.29-3.89c-19.48-0.74-38.94-0.92-58.43-2.81c-19.66-1.91-39.63-0.72-59.46-0.96
			c-1.6-0.02-3.24-0.38-4.79-0.83c-2.41-0.68-4.74-2.22-7.13-2.27c-17.99-0.36-35.99-0.42-53.99-0.65
			c-2.12-0.03-5.62,0.13-6.11-0.91c-2.27-4.84-8.46-2.4-11.06-6.86c-2.23-3.83-8.25-2.13-11.27-6.28c-1.66-2.28-5.33-3.19-8.19-4.49
			c-3.83-1.73-8.62-2.35-11.41-5.07c-3.09-3.02-7.65-1.65-10.57-5.7c-2.11-2.92-7.73-3.31-11.77-4.85
			c-0.29-0.11-0.68-0.35-0.73-0.59c-0.98-5.08-6.57-2.73-9.27-5.81c-2.22-2.53-7.04-2.61-9.88-4.83c-4.32-3.38-8.12-7.3-14.01-7.67
			c-0.31-0.02-0.82-0.16-0.89-0.37c-1.37-4-7.72-1.28-8.36-6.21c-5.85-0.61-9.69-4.66-14.27-7.72c-5.03-3.35-11.11-5.12-16.72-7.6
			c-0.68-0.3-1.33-0.67-1.96-1.07c-1.43-0.93-2.79-1.98-4.27-2.83c-0.68-0.39-2.15-0.24-2.27-0.64c-1.73-5.59-7.59-3.72-11.23-5.81
			c-3.4-1.95-6.25-6.51-11.31-5.29c-0.09,0.02-0.25-0.6-0.49-0.77c-3.05-2.17-5.94-4.7-9.24-6.39c-5.45-2.79-12.8-3.7-16.32-7.93
			c-3.2-3.85-8.25-1.98-10.98-6.63c-1.59-2.7-8.03-2.51-12.27-3.7c-0.93-0.26-1.79-0.79-2.65-1.25c-1.67-0.89-3.27-1.93-4.99-2.7
			c-1.02-0.46-3.05-0.31-3.19-0.82c-1.34-4.92-6.71-4.21-9.79-6.3c-5.22-3.54-12.75-3.02-18.58-7.26c-2.75-2-7.03-0.72-10.69-3.82
			c-2.76-2.33-8.34-1.56-12.5-4.4c-6.21-4.23-14.7-2.04-21.45-6.75c-3.25-2.27-8.57-0.79-12.95-3.74
			c-3.96-2.66-9.86-0.52-14.87-4.01c-4.1-2.85-10.44-2.51-15.8-3.51c-7.15-1.34-14.34,0.57-21.7-3.47
			c-6.3-3.46-14.67-0.72-22.42-3.94c-9.11-3.79-20.55,1.4-30.02-4.55c-18.45-1.08-36.89-2.97-55.35-3.1
			c-60.47-0.45-120.98-1.92-181.38,2.84c-2.49,0.2-5,0.11-7.49,0.26c-1.14,0.07-2.9,0.02-3.3,0.68c-2.35,3.84-6.08,2.68-9.37,2.85
			c-5.49,0.28-10.99,0.25-16.49,0.45c-1.46,0.05-3.72-0.02-4.23,0.82c-2.14,3.49-5.43,2.57-8.42,2.76
			c-3.66,0.22-7.33,0.22-10.99,0.43c-1.11,0.06-2.93,0.23-3.17,0.85c-1.38,3.49-4.35,2.4-6.8,2.67
			c-10.55,1.17-21.11,2.28-31.66,3.46c-0.78,0.09-2.01,0.41-2.2,0.93c-1.26,3.5-4.23,2.47-6.69,2.72c-2.8,0.29-7.15-0.59-8.14,0.87
			c-3.12,4.58-7.39,2.43-11.1,3.23c-1.71,0.36-3.49,0.53-5.12,1.12c-1.98,0.71-3.77,2.26-5.77,2.58c-3.76,0.6-8.55-0.77-11.26,1.09
			c-6.11,4.19-13.82,0.13-19.88,5.51c-3.16,2.8-9.57-0.36-14.09,4.04c-2.32,2.26-7.23,1.12-11.14,3.71
			c-4.48,2.97-11.07,3.22-16.82,3.72c-6.34,0.54-11.23,6.34-18.05,4.58c-0.2-0.05-0.7,0.29-0.75,0.52
			c-0.91,4.12-4.29,2.69-6.86,3.08c-1.44,0.22-3.85,0.02-4.17,0.74c-1.86,4.21-5.63,2.65-8.65,3.36
			c-4.33,1.01-10.05,0.81-12.59,3.54c-3.37,3.61-6.86,2.84-10.43,3.59c-0.64,0.13-1.79,0.13-1.86,0.39
			c-1.17,4.71-5.18,2.91-8.08,3.62c-0.95,0.23-2.36,0.13-2.77,0.73c-3.27,4.69-8.86,4.09-13.33,5.84
			c-5.25,2.06-10.88,3.14-16.34,4.67c-0.28,0.08-0.7,0.38-0.72,0.61c-0.24,3.67-3.27,2.37-5.23,3.04c-0.92,0.31-1.67,1.11-2.52,1.64
			c-1.13,0.7-2.2,1.64-3.43,1.99c-4.58,1.3-9.23,2.38-13.84,3.58c-0.43,0.11-1.1,0.48-1.12,0.77c-0.23,3.72-3.24,2.47-5.24,2.96
			c-0.95,0.24-2.71,0.07-2.82,0.46c-1.93,6.47-9.72,1.7-13.04,7.12c-1.6,2.61-7.7,2.45-11.74,3.62c-0.53,0.15-0.92,0.75-1.41,1.09
			c-1.27,0.88-2.5,1.83-3.86,2.55c-0.84,0.45-2.63,0.34-2.73,0.77c-1.26,5.57-7.87,2.41-10.62,6.84c-1.59,2.55-7.32,2.51-11.17,3.69
			c-0.57,0.17-1.08,0.56-1.58,0.9c-1.4,0.95-2.73,2.02-4.18,2.86c-0.81,0.47-2.5,0.39-2.65,0.88c-1.52,5.29-7.35,3.44-10.77,6.43
			c-3.68,3.21-10.79,2.99-16.46,3.32c-10.14,0.58-20.32,0.47-30.49,0.58c-3.46,0.04-6.8-0.24-6.87-5.03
			c-0.01-0.62-0.68-1.33-1.22-1.81c-2.02-1.8-4.58-3.2-6.08-5.34c-2.47-3.53-2.58-8.49-7.2-10.86c-1.72-0.88-2.79-3.15-3.97-4.91
			c-1.99-2.98-3.78-6.1-5.75-9.09c-2.19-3.31-4.49-6.55-7.35-10.71c2.92-0.34,4.06-0.69,5.16-0.57c9.76,1.08,19.51-0.25,29.44,2.28
			c8.09,2.06,17.88,3.05,24.42-5.99c1.97-2.72,4.19-9.2,1.96-9.96c-5.2-1.77-2.07-7.74-6.85-10.55c-4.43-2.61-7.05-8.62-13.13-9.84
			c-0.61-0.12-1.66-0.4-1.7-0.7c-0.68-5.18-8.08-1.77-8.72-6.88c-6.01-1.06-12-2.32-18.05-3.09c-3.78-0.49-7.65-0.21-11.48-0.34
			c-1.99-0.07-4.98,0.47-5.78-0.58c-3.19-4.2-7.48-2.76-11.39-2.97c-6.15-0.32-12.33-0.27-18.49-0.43
			c-1.32-0.03-3.39,0.15-3.81-0.55c-2.34-3.93-6.12-2.81-9.42-2.95c-7.99-0.33-16-0.25-23.98-0.64c-1.88-0.09-3.69-1.45-5.56-2.16
			c-1.18-0.45-2.39-0.98-3.62-1.11c-11.44-1.16-22.94,0.5-34.44-2.64c-6.99-1.91-14.9-0.56-22.4-0.48
			c-3.52,0.04-9.71,7.2-10.27,10.69c-0.94,5.9,4.12,9.22,5.68,14.08c1.48,4.61,5.57,7.88,11.03,8.4c0.64,0.06,1.58,0.7,1.78,1.28
			c2.27,6.66,9.37,7.68,14.09,9.55c7.77,3.08,16.98,3.96,25.44,3.44c8.39-0.52,12.45,4.74,16.6,9.43
			c3.92,4.42,5.23,10.94,10.84,14.44c1.83,1.14,2.96,3.47,4.27,5.35c2.1,3.01,4,6.16,6.13,9.15c1.5,2.11,3.42,3.93,4.83,6.08
			c1.77,2.69,2.56,7.08,4.92,8.12c6.1,2.69,4.88,10.36,10.18,13.19c0.27,0.14-0.09,1.45-0.21,2.86c-5.6,0-10.92-0.06-16.23,0.04
			c-1.45,0.03-2.93,0.39-4.32,0.84c-2.32,0.77-4.52,2.28-6.87,2.54c-12.34,1.37-24.72,2.42-37.08,3.68
			c-0.99,0.1-1.93,0.89-2.86,1.42c-1.17,0.67-2.29,1.41-3.44,2.12c-2.57,1.59-6.28,2.61-7.46,4.91c-2.13,4.15-3.65,9.04-3.83,13.69
			c-1.17,29.44,1.11,59-3.45,88.33c-0.61,3.92-0.23,7.99-0.37,11.98c-0.04,1.15,0.12,2.97-0.51,3.35c-4.72,2.9-2.71,7.59-3.38,11.55
			c-0.22,1.3-0.11,3.39-0.83,3.75c-3.46,1.72-2.53,4.84-3.18,7.58c-0.42,1.79-1.78,3.74-3.3,4.73c-0.65,0.42-2.78-1.41-4.22-2.24
			c-0.55-0.32-1.08-1.08-1.57-1.04c-4.56,0.38-5.79-3.98-8.67-5.97C5.38,558.68,2.69,556.84,0,554.99z"/>
		<path d="M0,554.99c2.69,1.85,5.38,3.69,8.07,5.54c2.88,1.99,4.1,6.35,8.67,5.97c0.49-0.04,1.02,0.72,1.57,1.04
			c1.44,0.84,3.58,2.67,4.22,2.24c1.52-0.99,2.88-2.94,3.3-4.73c0.64-2.75-0.28-5.86,3.18-7.58c0.72-0.36,0.61-2.45,0.83-3.75
			c0.67-3.96-1.35-8.65,3.38-11.55c0.62-0.38,0.47-2.19,0.51-3.35c0.14-4-0.24-8.07,0.37-11.98c4.56-29.33,2.28-58.89,3.45-88.33
			c0.18-4.64,1.71-9.54,3.83-13.69c1.18-2.31,4.89-3.32,7.46-4.91c1.14-0.71,2.27-1.45,3.44-2.12c0.93-0.53,1.87-1.32,2.86-1.42
			c12.36-1.26,24.74-2.31,37.08-3.68c2.35-0.26,4.55-1.77,6.87-2.54c1.38-0.46,2.87-0.82,4.32-0.84c5.31-0.1,10.63-0.04,16.23-0.04
			c0.12-1.42,0.48-2.72,0.21-2.86c-5.31-2.84-4.09-10.5-10.18-13.19c-2.36-1.04-3.15-5.43-4.92-8.12c-1.42-2.16-3.33-3.98-4.83-6.08
			c-2.13-2.99-4.04-6.14-6.13-9.15c-1.31-1.88-2.44-4.21-4.27-5.35c-5.61-3.49-6.92-10.02-10.84-14.44
			c-4.15-4.68-8.21-9.95-16.6-9.43c-8.46,0.52-17.67-0.36-25.44-3.44c-4.72-1.87-11.82-2.89-14.09-9.55
			c-0.2-0.58-1.13-1.22-1.78-1.28c-5.46-0.52-9.55-3.79-11.03-8.4c-1.56-4.87-6.62-8.19-5.68-14.08
			c0.56-3.48,6.75-10.65,10.27-10.69c7.5-0.08,15.41-1.43,22.4,0.48c11.5,3.15,23.01,1.49,34.44,2.64c1.23,0.12,2.44,0.66,3.62,1.11
			c1.87,0.71,3.68,2.06,5.56,2.16c7.99,0.4,15.99,0.31,23.98,0.64c3.3,0.14,7.07-0.98,9.42,2.95c0.42,0.7,2.5,0.52,3.81,0.55
			c6.16,0.16,12.34,0.11,18.49,0.43c3.91,0.2,8.2-1.23,11.39,2.97c0.8,1.05,3.79,0.51,5.78,0.58c3.83,0.13,7.7-0.14,11.48,0.34
			c6.05,0.78,12.03,2.04,18.05,3.09c0.64,5.11,8.05,1.7,8.72,6.88c0.04,0.31,1.09,0.58,1.7,0.7c6.09,1.22,8.71,7.24,13.13,9.84
			c4.77,2.81,1.65,8.78,6.85,10.55c2.24,0.76,0.01,7.24-1.96,9.96c-6.54,9.04-16.34,8.05-24.42,5.99
			c-9.93-2.53-19.68-1.2-29.44-2.28c-1.09-0.12-2.24,0.23-5.16,0.57c2.86,4.16,5.16,7.4,7.35,10.71c1.97,2.99,3.76,6.11,5.75,9.09
			c1.18,1.76,2.25,4.03,3.97,4.91c4.62,2.37,4.73,7.32,7.2,10.86c1.5,2.15,4.06,3.54,6.08,5.34c0.54,0.48,1.21,1.2,1.22,1.81
			c0.07,4.79,3.41,5.07,6.87,5.03c10.16-0.11,20.35,0,30.49-0.58c5.67-0.32,12.78-0.1,16.46-3.32c3.41-2.98,9.25-1.13,10.77-6.43
			c0.14-0.5,1.84-0.42,2.65-0.88c1.46-0.84,2.79-1.91,4.18-2.86c0.5-0.34,1.01-0.73,1.58-0.9c3.85-1.17,9.58-1.13,11.17-3.69
			c2.75-4.42,9.36-1.27,10.62-6.84c0.1-0.43,1.89-0.33,2.73-0.77c1.36-0.72,2.59-1.67,3.86-2.55c0.49-0.34,0.88-0.94,1.41-1.09
			c4.04-1.17,10.14-1,11.74-3.62c3.32-5.42,11.11-0.64,13.04-7.12c0.12-0.39,1.87-0.22,2.82-0.46c2-0.5,5.01,0.76,5.24-2.96
			c0.02-0.28,0.69-0.65,1.12-0.77c4.61-1.2,9.25-2.29,13.84-3.58c1.23-0.35,2.31-1.29,3.43-1.99c0.85-0.53,1.6-1.33,2.52-1.64
			c1.96-0.67,4.98,0.63,5.23-3.04c0.01-0.22,0.43-0.53,0.72-0.61c5.46-1.53,11.09-2.61,16.34-4.67c4.48-1.76,10.06-1.16,13.33-5.84
			c0.42-0.6,1.83-0.49,2.77-0.73c2.9-0.71,6.91,1.08,8.08-3.62c0.07-0.27,1.22-0.26,1.86-0.39c3.58-0.75,7.06,0.02,10.43-3.59
			c2.54-2.73,8.26-2.53,12.59-3.54c3.02-0.7,6.79,0.86,8.65-3.36c0.32-0.72,2.73-0.51,4.17-0.74c2.56-0.39,5.94,1.04,6.86-3.08
			c0.05-0.23,0.54-0.57,0.75-0.52c6.82,1.75,11.71-4.04,18.05-4.58c5.75-0.49,12.33-0.74,16.82-3.72c3.91-2.59,8.83-1.45,11.14-3.71
			c4.52-4.4,10.93-1.24,14.09-4.04c6.06-5.38,13.77-1.32,19.88-5.51c2.71-1.86,7.5-0.49,11.26-1.09c2.01-0.32,3.79-1.87,5.77-2.58
			c1.63-0.59,3.41-0.75,5.12-1.12c3.72-0.79,7.98,1.35,11.1-3.23c1-1.46,5.34-0.58,8.14-0.87c2.46-0.25,5.43,0.78,6.69-2.72
			c0.19-0.52,1.41-0.84,2.2-0.93c10.55-1.18,21.11-2.28,31.66-3.46c2.46-0.27,5.42,0.82,6.8-2.67c0.24-0.62,2.06-0.78,3.17-0.85
			c3.66-0.21,7.33-0.21,10.99-0.43c3-0.18,6.28,0.73,8.42-2.76c0.51-0.83,2.77-0.76,4.23-0.82c5.49-0.2,11-0.17,16.49-0.45
			c3.29-0.17,7.02,0.99,9.37-2.85c0.4-0.66,2.16-0.61,3.3-0.68c2.49-0.15,5-0.07,7.49-0.26c60.4-4.76,120.9-3.29,181.38-2.84
			c18.46,0.14,36.9,2.02,55.35,3.1c9.47,5.95,20.9,0.77,30.02,4.55c7.75,3.22,16.12,0.49,22.42,3.94c7.36,4.04,14.56,2.13,21.7,3.47
			c5.36,1,11.7,0.66,15.8,3.51c5.02,3.49,10.92,1.35,14.87,4.01c4.39,2.94,9.7,1.47,12.95,3.74c6.75,4.7,15.24,2.51,21.45,6.75
			c4.16,2.84,9.75,2.07,12.5,4.4c3.67,3.1,7.94,1.81,10.69,3.82c5.82,4.24,13.36,3.72,18.58,7.26c3.08,2.09,8.45,1.38,9.79,6.3
			c0.14,0.51,2.17,0.36,3.19,0.82c1.72,0.78,3.32,1.81,4.99,2.7c0.86,0.46,1.72,0.99,2.65,1.25c4.24,1.18,10.69,1,12.27,3.7
			c2.73,4.64,7.78,2.78,10.98,6.63c3.51,4.23,10.86,5.13,16.32,7.93c3.31,1.69,6.19,4.22,9.24,6.39c0.24,0.17,0.4,0.79,0.49,0.77
			c5.06-1.22,7.91,3.34,11.31,5.29c3.63,2.09,9.5,0.22,11.23,5.81c0.12,0.4,1.59,0.25,2.27,0.64c1.48,0.85,2.84,1.9,4.27,2.83
			c0.62,0.4,1.28,0.77,1.96,1.07c5.61,2.48,11.69,4.25,16.72,7.6c4.58,3.05,8.42,7.1,14.27,7.72c0.64,4.93,7,2.21,8.36,6.21
			c0.07,0.2,0.57,0.35,0.89,0.37c5.89,0.37,9.7,4.29,14.01,7.67c2.84,2.22,7.66,2.3,9.88,4.83c2.7,3.08,8.29,0.73,9.27,5.81
			c0.05,0.24,0.44,0.48,0.73,0.59c4.05,1.54,9.66,1.93,11.77,4.85c2.92,4.04,7.47,2.68,10.57,5.7c2.79,2.72,7.58,3.34,11.41,5.07
			c2.87,1.3,6.53,2.2,8.19,4.49c3.02,4.15,9.03,2.45,11.27,6.28c2.6,4.45,8.79,2.02,11.06,6.86c0.49,1.04,3.99,0.89,6.11,0.91
			c18,0.23,36,0.29,53.99,0.65c2.39,0.05,4.73,1.59,7.13,2.27c1.55,0.44,3.19,0.81,4.79,0.83c19.83,0.23,39.79-0.95,59.46,0.96
			c19.49,1.89,38.95,2.08,58.43,2.81c13.26,6.62,27.57,2.16,41.29,3.89c0.97,0.12,2.55,0.11,2.79,0.65c1.7,3.7,4.98,2.7,7.81,2.82
			c5.66,0.25,11.34,0.1,16.98,0.57c2,0.17,3.87,1.72,5.85,2.51c1.16,0.46,2.4,0.79,3.63,0.99c7.22,1.13,14.58,1.69,21.61,3.53
			c3.33,0.87,6.02,4.15,8.99,6.36c0.23,0.17,0.4,0.77,0.5,0.75c5.05-1.23,7.53,3.6,11.48,5.08c5.16,1.94,11.19,3.12,14.46,8.53
			c0.09,0.14,0.13,0.37,0.25,0.43c3.96,1.83,7.82,3.96,11.93,5.33c2.27,0.75,4.97,0.1,7.45,0.31c12.12,1.01,24.69,0.49,36.16,3.77
			c6.62,1.89,13.7,1.17,19.43,3.94c4.4,2.13,9.85,1.39,12.7,3.79c4.47,3.78,9.02,2.68,13.59,3.59c4.32,0.86,8.75,1.69,12.76,3.4
			c3.72,1.59,6.92,4.36,10.39,6.55c0.53,0.33,1.26,0.33,1.9,0.49c4.73,1.18,9.68,1.84,14.12,3.71c3.3,1.39,5.94,4.33,8.87,6.59
			c0.24,0.19,0.38,0.56,0.64,0.67c3.87,1.54,7.88,2.8,11.59,4.64c2.57,1.27,4.73,3.34,7.1,5.02c0.73,0.52,1.52,1.28,2.33,1.34
			c4.42,0.33,5.99,3.89,8.37,6.74c1.47,1.77,3.64,3.77,5.72,4.05c4.91,0.67,6.87,3.93,9.5,7.43c2.5,3.33,6.94,5.12,9.91,8.19
			c4.48,4.63,8.52,9.71,12.56,14.75c2.08,2.6,3.74,5.52,5.58,8.31c0.49,0.74,0.93,1.5,1.39,2.26c1.8,3,3.58,6.01,5.4,8.99
			c0.86,1.41,2.25,2.67,2.61,4.18c0.59,2.49-0.25,5.53,3.36,6.41c0.24,0.06,0.5,0.43,0.57,0.71c1.11,4.39,2.06,8.83,3.35,13.17
			c0.57,1.93,2,3.59,2.72,5.5c0.61,1.63,0.79,3.42,1.12,5.15c0.69,3.65-1.25,8.05,3.3,10.64c0.61,0.34,0.5,2.18,0.5,3.33
			c0.04,19.83,0.11,39.66-0.03,59.49c-0.01,1.63-1.54,3.22-2.21,4.89c-0.54,1.34-1.12,2.74-1.22,4.15
			c-0.28,3.82-0.05,7.69-0.55,11.47c-0.24,1.87-1.66,3.58-2.51,5.37c-0.39,0.83-0.82,1.67-1.04,2.55
			c-0.86,3.36-2.04,6.71-2.31,10.12c-0.15,1.89,0.71,4.55,2.08,5.72c2.43,2.06,5.55,3.37,8.48,4.78c3.84,1.85,7.9,2.55,11.38,5.95
			c3.84,3.75,8.3,6.76,10.93,11.7c0.3,0.56,2.13,0.3,3.25,0.42c0,5,0,10,0,15c-1.21,0.82-3.23,1.45-3.49,2.5
			c-1.28,5.33-3.22,9.42-9.66,9.95c-2.93,0.24-7.11,1.11-8.34,3.14c-2.73,4.51-6.57,2.98-10.06,3.36
			c-4.12,0.45-9.67-1.09-12.12,1.06c-3.84,3.37-7.59,2.59-11.45,2.81c-7.31,0.42-14.66,0.3-21.98,0.66
			c-1.81,0.09-3.55,1.23-5.34,1.8c-1.53,0.49-3.11,1.2-4.66,1.2c-42.83,0.09-85.65,0.1-128.48,0.07c-1.58,0-3.15-0.65-5.32-1.13
			c4.04-4.63,7.37-8.49,10.76-12.29c1.23-1.37,2.8-2.46,3.91-3.91c2.37-3.08,4.52-6.33,6.83-9.46c1.36-1.83,3.1-3.42,4.25-5.37
			c1.77-3.02,2.5-6.93,4.87-9.23c3.72-3.63,5.81-7.6,6.34-12.6c0.09-0.82,0.04-2.25,0.37-2.35c6.63-1.93,0.57-10.98,7.23-12.79
			c0.61-5.78,1.07-11.28,3.65-16.98c2.28-5.03,1.05-11.8,0.85-17.78c-0.19-5.62,2.77-10.91,0.39-16.91
			c-1.5-3.77-1.15-8.69-0.39-12.86c1.7-9.33-5.68-16.8-4.68-25.87c0.05-0.47-0.7-1-1.02-1.54c-0.84-1.36-2.56-2.94-2.32-4.09
			c1.21-5.71-3.66-9.16-5.36-13.61c-1.2-3.14-0.78-8.05-5.54-10.44c-2.46-1.24-2.4-7.64-4.83-8.76c-5.77-2.65-4.74-9.7-10.21-12.66
			c-4.19-2.27-6.75-7.48-10.21-11.21c-1.38-1.49-3.4-2.39-4.83-3.85c-3.31-3.36-5.85-8.64-9.77-9.94c-5.68-1.89-8.69-8-14.97-8.19
			c-0.41-0.01-1.05-0.39-1.16-0.72c-1.57-5.05-7.35-3.19-10.6-6.55c-2.88-2.98-10.02-1.52-13.58-4.24
			c-4.11-3.15-8.23-2.99-12.54-3.7c-0.3-0.05-0.79-0.25-0.83-0.46c-0.86-4.15-4.26-2.84-6.79-3.04c-3.81-0.3-7.66-0.13-11.48-0.39
			c-1.38-0.09-2.74-0.79-4.08-1.29c-1.72-0.65-3.38-1.91-5.11-2c-5.48-0.28-10.99-0.19-16.49-0.15c-2.32,0.02-5.66-0.62-6.77,0.62
			c-3.52,3.92-7.99,3.53-11.89,2.85c-8.37-1.47-14.65,5.51-22.66,4.76c-0.34-0.03-0.72,0.57-1.12,0.8
			c-1.64,0.93-3.21,2.11-4.97,2.67c-4.3,1.36-8.7,2.41-13.05,3.62c-0.28,0.08-0.49,0.41-0.75,0.61c-2.88,2.28-5.69,4.67-8.69,6.78
			c-2.14,1.51-4.41,3.24-6.87,3.82c-3.46,0.81-5.28,2.91-7.21,5.57c-1.55,2.14-3.88,3.81-6.07,5.39c-4.04,2.91-8.73,5.11-12.23,8.54
			c-3.5,3.44-4.75,8.71-8.58,12.25c-3.5,3.23-6.82,6.8-9.5,10.72c-2.35,3.44-3.75,7.55-5.49,11.4c-1.38,3.04-1.86,7.65-4.14,8.83
			c-3,1.54-2.45,3.39-2.82,5.42c-0.35,1.95,0.16,5.13-0.87,5.7c-5.93,3.32-0.67,11.64-6.86,14.54c-1.03,8.94-2.51,17.86-2.98,26.84
			c-0.51,9.64-0.09,19.32-0.03,28.99c0.01,1.49-0.3,3.43,0.48,4.4c4.71,5.84-0.16,14.34,5.96,20.03c1.89,1.76-1.16,7,3.7,8.41
			c0.29,0.08,0.18,1.25,0.42,1.84c1.71,4.3,3.37,8.63,5.24,12.86c1.93,4.36,4.08,8.62,6.13,12.92c0.21,0.44,0.25,1.17,0.57,1.31
			c4.32,1.88,4.71,6.69,7.39,9.79c2.73,3.16,4.7,7.47,8.07,9.47c3.46,2.05,2.87,4.01,2.74,6.7c-0.85,0.14-1.34,0.3-1.82,0.3
			c-29.16-0.12-58.32-0.24-87.48-0.44c-1.4-0.01-2.81-0.68-4.2-1.11c-1.96-0.61-3.89-1.81-5.85-1.85
			c-82.17-1.86-164.41,1.93-246.55-3.05c-5.15-0.31-10.33-0.1-15.5-0.11c-133.81-0.28-267.62-0.56-401.44-0.87
			c-1.97,0-3.98-0.16-5.91-0.56c-3.25-0.69-6.45-2.35-9.67-2.36c-68.99-0.27-137.98-0.36-206.97-0.49c-2.78-0.01-5.55,0-8.33,0
			c-0.25-0.43-0.5-0.87-0.74-1.3c2.1-2.19,3.93-4.75,6.36-6.49c4.75-3.4,10.91-4.95,13.51-11.06c0.68-1.59,1.8-3.2,3.13-4.28
			c4.9-3.97,8.41-9.02,11.66-14.29c1.43-2.32,2.17-5.27,4.06-7.04c3-2.81,5.24-5.74,7.33-9.36c1.88-3.26,3.37-6.22,4.08-9.88
			c0.49-2.48,1.38-6.29,3.02-6.86c4.83-1.69,2.77-5.32,3.38-8.19c0.27-1.29-0.15-3.53,0.47-3.82c5.23-2.47,2.79-7.23,3.62-10.98
			c0.34-1.52,0.76-3.04,1.35-4.48c0.66-1.64,2.21-3.18,2.23-4.77c0.14-15.33,0.05-30.65-0.01-45.98c-0.01-1.31,0.11-3.33-0.62-3.8
			c-3.69-2.37-2.64-6.07-3.12-9.34c-0.14-0.98,0.06-2.64-0.39-2.84c-4.58-1.98-2.74-6.22-3.64-9.51c-1.25-4.59-2.78-9.11-4.4-13.58
			c-0.87-2.4-1.65-6.06-3.37-6.69c-5.18-1.9-2.41-7.86-6.76-10.7c-3.72-2.43-4.29-10.4-7.97-12.04c-6.13-2.72-6.27-9.35-11.22-12.49
			c-3.59-2.28-5.48-7.53-9.16-9.29c-5.46-2.6-8.19-7.9-13.13-10.74c-2.91-1.67-5.65-3.66-8.62-5.19c-3.24-1.67-7.49-2.18-9.83-4.61
			c-4.52-4.69-9.85-6.13-15.84-6.61c-0.66-0.05-1.76,0.03-1.91-0.29c-2.3-5.11-7.03-2.96-10.77-3.71c-1.13-0.23-2.96-0.16-3.26-0.79
			c-2.02-4.26-5.8-2.91-9.03-3.07c-4.82-0.24-9.66-0.15-14.49-0.42c-1.55-0.09-3.31-0.53-4.54-1.4c-2.78-1.97-14.73-2.68-17.56-1.13
			c-2.27,1.24-4.83,2.3-7.35,2.6c-4.12,0.48-8.32,0.22-12.48,0.39c-2.15,0.09-5.58-0.32-6.22,0.78c-3.41,5.91-11.01,1.17-15.05,6.62
			c-1.51,2.04-7.27,0.82-10.88,3.25c-3.53,2.38-7.92,3.47-11.92,5.17c-0.25,0.11-0.32,0.59-0.57,0.77
			c-2.87,2.08-5.69,4.25-8.66,6.17c-2.13,1.37-4.78,2.05-6.65,3.68c-4.09,3.57-7.29,8.49-11.85,11.1
			c-5.19,2.96-9.05,6.63-12.05,11.53c-1.28,2.09-2.21,4.46-3.81,6.25c-1.8,2.01-4.3,3.38-6.27,5.27c-1.53,1.47-3.15,3.12-3.93,5.02
			c-1.52,3.7-2.46,7.64-3.71,11.47c-0.18,0.55-0.72,0.97-1.08,1.46c-2.17,2.95-5.69,5.68-6.2,8.9c-0.9,5.63-5.91,9.68-4.93,16.04
			c0.48,3.08-1.59,6.57-2.56,9.86c-0.26,0.88-0.64,1.75-1.06,2.57c-0.81,1.56-2.4,3.07-2.42,4.62c-0.23,16.99-0.22,33.99-0.24,50.98
			c0,1.31,0.02,3.56,0.6,3.77c4.54,1.62,2.69,5.45,3.24,8.43c1.11,5.99,2.21,11.98,3.37,17.95c0.08,0.41,0.58,0.72,0.81,1.12
			c0.97,1.62,2,3.2,2.83,4.88c1.74,3.49,3.3,7.08,5.09,10.55c1.01,1.96,2.34,3.76,3.94,6.26c-5.12,0.46-10.26-0.52-11.7,1.35
			c-3.35,4.36-7.39,2.46-11.1,3.22c-1.59,0.32-4.32,0.2-4.59,0.96c-1.28,3.63-4.16,2.55-6.62,2.91c-7.33,1.08-14.66,2.21-21.98,3.36
			c-0.6,0.09-1.56,0.37-1.66,0.75c-1.02,3.75-4.11,2.6-6.56,2.84c-3.46,0.35-8.4-0.76-10.1,1.12c-3.28,3.6-6.83,2.37-10.33,2.97
			c-3.95,0.67-8.73-1.65-11.55,3.31c-0.29,0.51-1.87,0.39-2.86,0.39c-18.33,0.02-36.65,0.04-54.98-0.04
			c-1.41-0.01-2.86-0.58-4.22-1.08c-2-0.72-3.88-2.1-5.9-2.33c-3.96-0.45-7.98-0.27-11.98-0.39c-1.16-0.04-3.02,0.21-3.37-0.38
			c-3.33-5.55-8.87-2.61-13.31-3.72c-1.33-0.33-2.62-0.9-3.86-1.52c-1.3-0.65-2.42-1.82-3.78-2.19c-4.45-1.24-8.97-2.2-13.46-3.32
			c-0.4-0.1-0.69-0.6-1.08-0.84c-1.58-1.01-3.13-2.09-4.79-2.93c-0.84-0.42-2.5-0.07-2.78-0.6c-2.36-4.48-7.5-4.72-11.03-7.4
			c-2.23-1.69-5.99-1.93-7.43-3.97c-3.23-4.59-7.61-7.91-11.19-11.95c-3.68-4.15-5.33-10.1-7.84-15.27
			c-0.27-0.56-0.25-1.64-0.6-1.75c-4.04-1.27-3.03-4.69-3.22-7.51c-0.26-3.82,0.58-7.95-0.6-11.42c-1.79-5.27-4.83-10.12-7.53-15.05
			c-0.49-0.9-2.61-1.24-2.69-1.98C3.96,669.77,1.99,670.52,0,671C0,632.33,0,593.66,0,554.99z"/>
		<path class="st0" d="M0,671c1.99-0.48,3.96-1.23,4.32,2.09c0.08,0.74,2.2,1.08,2.69,1.98c2.69,4.93,5.74,9.78,7.53,15.05
			c1.18,3.47,0.34,7.6,0.6,11.42c0.19,2.81-0.82,6.24,3.22,7.51c0.35,0.11,0.32,1.18,0.6,1.75c2.51,5.17,4.16,11.12,7.84,15.27
			c3.58,4.04,7.96,7.36,11.19,11.95c1.44,2.04,5.21,2.28,7.43,3.97c3.53,2.68,8.67,2.92,11.03,7.4c0.28,0.53,1.94,0.18,2.78,0.6
			c1.67,0.84,3.21,1.93,4.79,2.93c0.39,0.25,0.68,0.74,1.08,0.84c4.48,1.12,9.01,2.08,13.46,3.32c1.36,0.38,2.48,1.54,3.78,2.19
			c1.23,0.62,2.52,1.19,3.86,1.52c4.45,1.11,9.98-1.84,13.31,3.72c0.36,0.59,2.21,0.35,3.37,0.38c4,0.12,8.02-0.05,11.98,0.39
			c2.03,0.23,3.91,1.61,5.9,2.33c1.36,0.49,2.81,1.07,4.22,1.08c18.32,0.07,36.65,0.06,54.98,0.04c0.98,0,2.57,0.12,2.86-0.39
			c2.81-4.97,7.6-2.64,11.55-3.31c3.5-0.6,7.05,0.63,10.33-2.97c1.71-1.88,6.64-0.77,10.1-1.12c2.45-0.25,5.54,0.9,6.56-2.84
			c0.1-0.38,1.06-0.66,1.66-0.75c7.32-1.15,14.65-2.29,21.98-3.36c2.46-0.36,5.33,0.72,6.62-2.91c0.27-0.77,3-0.64,4.59-0.96
			c3.72-0.76,7.75,1.14,11.1-3.22c1.44-1.87,6.57-0.88,11.7-1.35c-1.59-2.51-2.92-4.3-3.94-6.26c-1.79-3.47-3.35-7.06-5.09-10.55
			c-0.84-1.68-1.87-3.27-2.83-4.88c-0.24-0.4-0.73-0.71-0.81-1.12c-1.15-5.98-2.25-11.97-3.37-17.95c-0.55-2.98,1.3-6.81-3.24-8.43
			c-0.58-0.21-0.61-2.46-0.6-3.77c0.01-16.99,0.01-33.99,0.24-50.98c0.02-1.55,1.62-3.06,2.42-4.62c0.42-0.82,0.8-1.68,1.06-2.57
			c0.96-3.29,3.03-6.78,2.56-9.86c-0.99-6.37,4.03-10.42,4.93-16.04c0.52-3.22,4.03-5.95,6.2-8.9c0.36-0.49,0.9-0.91,1.08-1.46
			c1.24-3.82,2.19-7.76,3.71-11.47c0.78-1.9,2.4-3.56,3.93-5.02c1.96-1.89,4.46-3.26,6.27-5.27c1.6-1.79,2.54-4.16,3.81-6.25
			c3-4.9,6.86-8.57,12.05-11.53c4.57-2.6,7.76-7.53,11.85-11.1c1.86-1.63,4.52-2.3,6.65-3.68c2.97-1.92,5.79-4.09,8.66-6.17
			c0.25-0.18,0.32-0.66,0.57-0.77c4-1.69,8.39-2.79,11.92-5.17c3.61-2.43,9.37-1.22,10.88-3.25c4.04-5.45,11.65-0.71,15.05-6.62
			c0.63-1.1,4.07-0.69,6.22-0.78c4.16-0.17,8.36,0.1,12.48-0.39c2.53-0.3,5.09-1.37,7.35-2.6c2.84-1.55,14.78-0.84,17.56,1.13
			c1.24,0.88,2.99,1.32,4.54,1.4c4.82,0.27,9.66,0.18,14.49,0.42c3.23,0.16,7.01-1.19,9.03,3.07c0.3,0.64,2.13,0.57,3.26,0.79
			c3.74,0.75,8.47-1.4,10.77,3.71c0.14,0.32,1.25,0.24,1.91,0.29c5.99,0.48,11.32,1.92,15.84,6.61c2.34,2.43,6.59,2.94,9.83,4.61
			c2.98,1.53,5.71,3.52,8.62,5.19c4.94,2.84,7.67,8.14,13.13,10.74c3.68,1.75,5.57,7.01,9.16,9.29c4.95,3.15,5.09,9.77,11.22,12.49
			c3.69,1.64,4.25,9.61,7.97,12.04c4.35,2.84,1.58,8.8,6.76,10.7c1.72,0.63,2.51,4.29,3.37,6.69c1.62,4.47,3.14,9,4.4,13.58
			c0.9,3.29-0.94,7.53,3.64,9.51c0.45,0.2,0.25,1.86,0.39,2.84c0.48,3.28-0.57,6.98,3.12,9.34c0.73,0.47,0.62,2.49,0.62,3.8
			c0.07,15.33,0.16,30.66,0.01,45.98c-0.01,1.59-1.57,3.13-2.23,4.77c-0.58,1.44-1.01,2.96-1.35,4.48
			c-0.83,3.75,1.6,8.52-3.62,10.98c-0.61,0.29-0.19,2.53-0.47,3.82c-0.61,2.86,1.45,6.5-3.38,8.19c-1.64,0.57-2.53,4.38-3.02,6.86
			c-0.72,3.66-2.2,6.62-4.08,9.88c-2.09,3.62-4.33,6.56-7.33,9.36c-1.89,1.77-2.62,4.73-4.06,7.04
			c-3.25,5.27-6.77,10.32-11.66,14.29c-1.34,1.08-2.46,2.69-3.13,4.28c-2.6,6.11-8.76,7.66-13.51,11.06
			c-2.43,1.74-4.26,4.3-6.36,6.49c0.25,0.43,0.5,0.87,0.74,1.3c2.78,0,5.55,0,8.33,0c68.99,0.13,137.98,0.22,206.97,0.49
			c3.22,0.01,6.42,1.68,9.67,2.36c1.92,0.41,3.93,0.56,5.91,0.56c133.81,0.31,267.62,0.58,401.44,0.87
			c5.17,0.01,10.35-0.2,15.5,0.11c82.14,4.98,164.38,1.19,246.55,3.05c1.96,0.04,3.89,1.24,5.85,1.85c1.38,0.43,2.79,1.1,4.2,1.11
			c29.16,0.2,58.32,0.32,87.48,0.44c0.48,0,0.96-0.15,1.82-0.3c0.13-2.68,0.72-4.65-2.74-6.7c-3.37-2-5.34-6.31-8.07-9.47
			c-2.68-3.1-3.07-7.91-7.39-9.79c-0.32-0.14-0.36-0.87-0.57-1.31c-2.05-4.31-4.2-8.56-6.13-12.92c-1.87-4.23-3.53-8.56-5.24-12.86
			c-0.24-0.6-0.13-1.76-0.42-1.84c-4.86-1.41-1.81-6.65-3.7-8.41c-6.12-5.69-1.25-14.19-5.96-20.03c-0.78-0.97-0.47-2.91-0.48-4.4
			c-0.06-9.66-0.47-19.35,0.03-28.99c0.47-8.97,1.95-17.89,2.98-26.84c6.19-2.9,0.93-11.22,6.86-14.54c1.03-0.58,0.52-3.75,0.87-5.7
			c0.37-2.03-0.18-3.88,2.82-5.42c2.29-1.18,2.77-5.79,4.14-8.83c1.74-3.85,3.14-7.96,5.49-11.4c2.68-3.92,6-7.49,9.5-10.72
			c3.83-3.53,5.08-8.81,8.58-12.25c3.5-3.43,8.19-5.63,12.23-8.54c2.19-1.58,4.52-3.25,6.07-5.39c1.93-2.66,3.75-4.75,7.21-5.57
			c2.46-0.58,4.73-2.31,6.87-3.82c3-2.12,5.8-4.51,8.69-6.78c0.25-0.2,0.46-0.53,0.75-0.61c4.35-1.21,8.75-2.26,13.05-3.62
			c1.76-0.56,3.33-1.74,4.97-2.67c0.4-0.23,0.78-0.83,1.12-0.8c8.01,0.76,14.3-6.22,22.66-4.76c3.89,0.68,8.37,1.06,11.89-2.85
			c1.11-1.24,4.45-0.6,6.77-0.62c5.5-0.05,11-0.14,16.49,0.15c1.73,0.09,3.39,1.35,5.11,2c1.34,0.51,2.7,1.2,4.08,1.29
			c3.82,0.26,7.67,0.09,11.48,0.39c2.53,0.2,5.93-1.11,6.79,3.04c0.04,0.2,0.53,0.41,0.83,0.46c4.31,0.71,8.43,0.55,12.54,3.7
			c3.56,2.72,10.7,1.26,13.58,4.24c3.25,3.37,9.03,1.51,10.6,6.55c0.11,0.34,0.75,0.71,1.16,0.72c6.28,0.19,9.29,6.3,14.97,8.19
			c3.92,1.3,6.46,6.58,9.77,9.94c1.43,1.46,3.45,2.35,4.83,3.85c3.46,3.74,6.02,8.94,10.21,11.21c5.47,2.96,4.44,10.01,10.21,12.66
			c2.43,1.12,2.37,7.52,4.83,8.76c4.75,2.39,4.34,7.31,5.54,10.44c1.7,4.45,6.57,7.9,5.36,13.61c-0.24,1.15,1.48,2.72,2.32,4.09
			c0.33,0.53,1.08,1.07,1.02,1.54c-1.01,9.07,6.37,16.54,4.68,25.87c-0.76,4.18-1.1,9.09,0.39,12.86c2.38,6-0.58,11.3-0.39,16.91
			c0.21,5.98,1.44,12.75-0.85,17.78c-2.59,5.7-3.04,11.2-3.65,16.98c-6.66,1.81-0.6,10.86-7.23,12.79
			c-0.32,0.09-0.28,1.53-0.37,2.35c-0.53,5.01-2.62,8.98-6.34,12.6c-2.37,2.31-3.1,6.22-4.87,9.23c-1.14,1.95-2.89,3.53-4.25,5.37
			c-2.31,3.13-4.45,6.38-6.83,9.46c-1.12,1.45-2.69,2.53-3.91,3.91c-3.4,3.8-6.72,7.67-10.76,12.29c2.17,0.48,3.75,1.13,5.32,1.13
			c42.83,0.04,85.65,0.02,128.48-0.07c1.56,0,3.13-0.72,4.66-1.2c1.8-0.57,3.54-1.71,5.34-1.8c7.32-0.36,14.66-0.24,21.98-0.66
			c3.86-0.22,7.61,0.56,11.45-2.81c2.45-2.15,8-0.61,12.12-1.06c3.49-0.38,7.32,1.16,10.06-3.36c1.23-2.03,5.41-2.9,8.34-3.14
			c6.43-0.53,8.37-4.62,9.66-9.95c0.25-1.05,2.28-1.68,3.49-2.5c0,97.66,0,195.31,0,292.99c-640,0-1280,0-1920,0
			C0,943.64,0,807.32,0,671z M407.72,786.99c0.05,0.51,0.09,1.02,0.14,1.52c12.82-1.6,25.7-2.84,38.41-5.04
			c3.73-0.65,6.89-4.29,11.3-3.87c0.14,0.01,0.28-0.56,0.52-0.73c1.4-1.01,2.78-2.05,4.25-2.93c0.77-0.46,2.47-0.62,2.48-0.94
			c0.06-3.45,2.86-2.54,4.69-3.11c1.05-0.33,2.36-0.33,3.12-0.98c2.89-2.48,4.68-6.01,9.3-6.65c2.12-0.29,3.88-3.43,5.72-5.36
			c2.82-2.96,5.45-6.12,8.39-8.95c1.96-1.89,6.1-3.26,6.19-5.02c0.36-6.74,8.16-9.35,8.08-16.01c-0.01-0.52,0.47-1.32,0.92-1.52
			c4.67-1.99,5.69-5.91,5.78-10.43c0.03-1.47,0.07-4.06,0.66-4.23c4.68-1.37,2.77-5.32,3.59-8.17c0.3-1.05,0.68-2.09,1.17-3.05
			c0.77-1.52,2.22-2.91,2.4-4.47c0.45-3.79,0.25-7.65,0.49-11.48c0.07-1.23,0.6-2.45,1.05-3.63c0.72-1.88,1.95-3.65,2.24-5.58
			c0.43-2.78,0.54-5.69,0.21-8.47c-0.53-4.52,0.9-9.05-2.85-13.54c-2.13-2.55-0.71-8.02-0.99-12.18c-0.11-1.63-0.09-4.46-0.76-4.66
			c-4.25-1.28-2.76-4.71-3.26-7.39c-0.26-1.39-0.36-2.9-0.98-4.13c-1.77-3.52-3.92-6.87-5.65-10.41c-1.76-3.61-3.2-7.37-4.81-11.05
			c-0.1-0.23-0.61-0.26-0.77-0.49c-1.88-2.56-3.8-5.11-5.58-7.75c-0.78-1.16-0.96-2.85-1.93-3.72c-3.22-2.88-7.49-4.93-9.83-8.35
			c-2.6-3.79-4.83-6.99-9.64-8.06c-2.03-0.45-3.91-2.34-5.48-3.94c-2.56-2.63-4.2-6.34-8.7-6.36c-0.85,0-2.06-0.35-2.49-0.97
			c-2.75-3.98-7.27-4.55-11.29-5.81c-5.78-1.81-11.74-3.04-17.61-4.54c-0.29-0.07-0.71-0.34-0.75-0.57
			c-0.62-3.76-3.64-2.8-5.89-2.81c-14.16-0.1-28.32-0.07-42.48-0.02c-1.27,0-3.47,0.16-3.65,0.74c-1.22,3.94-4.45,2.66-7.01,3.04
			c-1.64,0.24-4.49-0.21-4.78,0.49c-2.7,6.41-9.94,1.61-13.92,6.07c-2.57,2.88-7.77,3.41-11.78,5.03c-0.26,0.1-0.36,0.52-0.61,0.71
			c-3.12,2.39-6.36,4.62-9.34,7.16c-3.48,2.96-6.74,6.18-10.09,9.28c-1.99,1.84-3.97,3.7-6,5.5c-1.43,1.27-3.33,2.21-4.33,3.74
			c-2.71,4.12-4.98,8.52-7.58,12.71c-0.94,1.52-2.69,2.6-3.44,4.18c-1.81,3.78-3.24,7.74-4.85,11.62c-0.11,0.26-0.42,0.59-0.66,0.61
			c-3.59,0.33-2.57,3.23-2.94,5.29c-1.19,6.65-2.3,13.31-3.53,19.95c-0.13,0.7-0.99,1.23-1.33,1.92c-0.69,1.4-1.79,2.86-1.81,4.31
			c-0.15,10.83-0.1,21.66-0.04,32.49c0.01,1.1,0.25,2.98,0.83,3.17c3.39,1.12,2.32,3.95,2.77,6.22c1.06,5.34,0.38,12.87,3.64,15.5
			c5.25,4.24,0.7,11.57,7.11,14.85c2.66,1.36,3.52,6.26,5.19,9.56c1,1.98,1.56,4.35,3.01,5.91c4.46,4.82,9.22,9.36,13.92,13.95
			c1.23,1.21,2.65,2.23,4.01,3.31c2.75,2.21,5.49,4.44,8.3,6.57c0.62,0.47,1.96,0.39,2.19,0.9c1.8,4.06,5.68,4.84,9.19,6.52
			c3.19,1.52,8.24,2.93,9.2,4.51c2.95,4.84,8.37,2.84,12.03,6.19c3.54,3.24,10.48,3.25,16,3.7
			C393.7,787.42,400.73,786.99,407.72,786.99z M1599.62,578.79c-2.16,0.66-4.18,1.45-6.27,1.87c-8.34,1.69-17.25-2.34-25.41,3.76
			c-3.31,2.47-9.08,0.06-13.32,4.13c-2.66,2.55-7.79,2.52-11.8,3.66c-0.47,0.13-1.29,0.29-1.31,0.51c-0.57,5.16-7.58,2.16-8.79,7.07
			c-0.41,1.66-3.42,2.73-5.29,3.98c-3.99,2.67-8.37,4.9-11.94,8.04c-3.8,3.34-6.87,7.52-10.21,11.37c-0.41,0.47-0.52,1.19-0.84,1.76
			c-1.68,2.94-2.77,7.56-5.2,8.43c-5,1.79-2.98,6.68-5.78,9.51c-2.87,2.9-2.21,9.65-5.22,11.99c-5.39,4.2-0.8,11.97-6.88,15.1
			c-1.03,9.61-2.4,19.21-2.94,28.85c-0.21,3.74,1.75,7.55,2.16,11.38c0.48,4.46,0.26,8.99,0.51,13.48c0.07,1.2,0.64,2.4,1.15,3.53
			c0.8,1.81,1.99,3.48,2.57,5.34c1.05,3.39-1.78,8.21,3.81,9.94c0.27,0.08,0.09,1.28,0.33,1.88c1.57,4.05,2.85,8.26,4.89,12.06
			c2.02,3.77,6.52,6.11,6.48,11.16c0,0.41,0.76,0.89,1.24,1.23c1.91,1.35,4.8,2.23,5.61,4.05c2.49,5.62,7.04,9.1,11.44,12.86
			c1.44,1.23,2.65,2.73,4.1,3.95c4.06,3.41,6.5,8.91,12.6,9.73c0.83,0.11,1.57,0.91,2.35,1.4c4.55,2.88,8.9,6.17,13.71,8.52
			c3.34,1.63,7.11,1.13,10.79,3.77c4.03,2.9,10.34,3.41,15.69,3.53c18.02,0.42,36.17,2.43,53.91-2.73
			c4.61-1.34,11.49-1.53,13.23-4.59c2.77-4.86,9.78-0.97,10.6-6.92c7.39-2.03,13.24-6.62,18.83-11.57c1.07-0.95,1.34-3.08,2.48-3.62
			c4.99-2.41,8.86-5.82,11.52-10.7c0.9-1.66,2.12-3.18,3.36-4.63c2.35-2.73,4.85-5.33,7.22-8.04c1.31-1.5,2.94-2.95,3.64-4.73
			c1.47-3.73,2.4-7.67,3.61-11.51c0.17-0.54,0.72-0.95,1.05-1.46c0.91-1.42,2.47-2.8,2.57-4.28c0.42-6.03,5.98-10.61,4.62-17.07
			c-0.04-0.17,0.47-0.41,0.6-0.68c0.92-1.84,2.53-3.69,2.58-5.56c0.28-11.49,0.67-23.01,0.05-34.47
			c-0.36-6.49-1.21-13.72-4.44-19.02c-2.34-3.83-2.85-7.2-3.39-11.07c-0.1-0.72-0.4-1.69-0.94-2.03c-4.04-2.57-3.88-7.34-5.84-10.98
			c-1.82-3.38-3.3-6.95-4.98-10.41c-0.1-0.2-0.67-0.12-0.89-0.32c-2.05-1.77-4.2-3.43-6.06-5.38c-3.18-3.35-6.15-6.89-9.23-10.33
			c-1.93-2.16-3.75-4.46-5.92-6.35c-3.25-2.84-6.6-5.65-10.23-7.97c-3.39-2.17-7.75-3.08-10.69-5.67
			c-3.56-3.14-7.19-5.21-11.84-5.66c-1.15-0.11-3.09-0.05-3.29-0.58c-1.7-4.58-5.65-2.82-8.76-3.39c-0.96-0.18-2.64-0.26-2.75-0.69
			c-1.11-4.37-4.65-2.94-7.32-3.1c-5.48-0.32-11-0.16-16.48-0.5C1602.94,580.51,1601.29,579.42,1599.62,578.79z"/>
		<path d="M407.72,786.99c-7,0-14.03,0.43-20.98-0.14c-5.53-0.45-12.46-0.47-16-3.7c-3.67-3.35-9.09-1.35-12.03-6.19
			c-0.96-1.58-6.02-2.99-9.2-4.51c-3.51-1.68-7.38-2.45-9.19-6.52c-0.23-0.52-1.57-0.43-2.19-0.9c-2.81-2.14-5.55-4.37-8.3-6.57
			c-1.35-1.08-2.77-2.1-4.01-3.31c-4.7-4.59-9.46-9.13-13.92-13.95c-1.44-1.56-2.01-3.93-3.01-5.91c-1.66-3.3-2.52-8.2-5.19-9.56
			c-6.41-3.28-1.85-10.6-7.11-14.85c-3.26-2.64-2.59-10.16-3.64-15.5c-0.45-2.27,0.63-5.1-2.77-6.22c-0.57-0.19-0.82-2.07-0.83-3.17
			c-0.06-10.83-0.11-21.66,0.04-32.49c0.02-1.45,1.11-2.9,1.81-4.31c0.34-0.7,1.2-1.23,1.33-1.92c1.23-6.64,2.34-13.3,3.53-19.95
			c0.37-2.07-0.65-4.97,2.94-5.29c0.24-0.02,0.55-0.35,0.66-0.61c1.61-3.88,3.04-7.84,4.85-11.62c0.75-1.58,2.5-2.66,3.44-4.18
			c2.6-4.19,4.87-8.59,7.58-12.71c1.01-1.53,2.9-2.47,4.33-3.74c2.03-1.8,4.01-3.66,6-5.5c3.36-3.1,6.62-6.32,10.09-9.28
			c2.99-2.54,6.23-4.78,9.34-7.16c0.24-0.19,0.35-0.61,0.61-0.71c4.01-1.62,9.21-2.15,11.78-5.03c3.98-4.46,11.21,0.35,13.92-6.07
			c0.3-0.7,3.14-0.25,4.78-0.49c2.56-0.38,5.8,0.91,7.01-3.04c0.18-0.58,2.38-0.74,3.65-0.74c14.16-0.05,28.32-0.08,42.48,0.02
			c2.24,0.02,5.27-0.95,5.89,2.81c0.04,0.23,0.46,0.5,0.75,0.57c5.88,1.5,11.83,2.73,17.61,4.54c4.02,1.26,8.54,1.83,11.29,5.81
			c0.43,0.62,1.64,0.97,2.49,0.97c4.5,0.02,6.13,3.74,8.7,6.36c1.57,1.61,3.45,3.49,5.48,3.94c4.82,1.08,7.04,4.27,9.64,8.06
			c2.34,3.41,6.61,5.47,9.83,8.35c0.97,0.87,1.15,2.56,1.93,3.72c1.78,2.64,3.69,5.18,5.58,7.75c0.17,0.23,0.67,0.26,0.77,0.49
			c1.62,3.68,3.05,7.44,4.81,11.05c1.73,3.54,3.88,6.88,5.65,10.41c0.62,1.23,0.72,2.74,0.98,4.13c0.51,2.68-0.99,6.1,3.26,7.39
			c0.67,0.2,0.65,3.03,0.76,4.66c0.27,4.15-1.14,9.63,0.99,12.18c3.75,4.49,2.32,9.02,2.85,13.54c0.33,2.79,0.22,5.7-0.21,8.47
			c-0.3,1.93-1.52,3.7-2.24,5.58c-0.45,1.17-0.97,2.4-1.05,3.63c-0.23,3.82-0.04,7.69-0.49,11.48c-0.18,1.56-1.63,2.95-2.4,4.47
			c-0.49,0.97-0.87,2.01-1.17,3.05c-0.82,2.85,1.1,6.8-3.59,8.17c-0.59,0.17-0.63,2.76-0.66,4.23c-0.09,4.53-1.11,8.44-5.78,10.43
			c-0.45,0.19-0.93,1-0.92,1.52c0.08,6.65-7.72,9.26-8.08,16.01c-0.09,1.76-4.23,3.14-6.19,5.02c-2.94,2.83-5.57,5.99-8.39,8.95
			c-1.84,1.93-3.6,5.06-5.72,5.36c-4.62,0.64-6.41,4.18-9.3,6.65c-0.76,0.65-2.07,0.65-3.12,0.98c-1.84,0.58-4.63-0.34-4.69,3.11
			c-0.01,0.32-1.7,0.47-2.48,0.94c-1.47,0.88-2.85,1.92-4.25,2.93c-0.23,0.17-0.37,0.74-0.52,0.73c-4.41-0.42-7.57,3.22-11.3,3.87
			c-12.71,2.2-25.6,3.44-38.41,5.04C407.81,788.01,407.77,787.5,407.72,786.99z"/>
		<path d="M1599.62,578.79c1.67,0.63,3.32,1.72,5.04,1.82c5.48,0.34,11,0.18,16.48,0.5c2.67,0.15,6.21-1.27,7.32,3.1
			c0.11,0.44,1.79,0.52,2.75,0.69c3.11,0.58,7.06-1.19,8.76,3.39c0.2,0.53,2.14,0.47,3.29,0.58c4.65,0.45,8.28,2.53,11.84,5.66
			c2.94,2.59,7.29,3.5,10.69,5.67c3.63,2.32,6.97,5.13,10.23,7.97c2.17,1.89,3.98,4.2,5.92,6.35c3.08,3.44,6.05,6.98,9.23,10.33
			c1.85,1.95,4.01,3.62,6.06,5.38c0.23,0.19,0.8,0.12,0.89,0.32c1.67,3.46,3.16,7.03,4.98,10.41c1.96,3.64,1.8,8.41,5.84,10.98
			c0.54,0.34,0.84,1.31,0.94,2.03c0.54,3.87,1.05,7.24,3.39,11.07c3.24,5.3,4.09,12.53,4.44,19.02c0.63,11.46,0.23,22.98-0.05,34.47
			c-0.05,1.88-1.66,3.72-2.58,5.56c-0.13,0.27-0.64,0.51-0.6,0.68c1.36,6.46-4.21,11.04-4.62,17.07c-0.1,1.48-1.66,2.87-2.57,4.28
			c-0.32,0.51-0.88,0.92-1.05,1.46c-1.21,3.84-2.14,7.78-3.61,11.51c-0.7,1.78-2.33,3.22-3.64,4.73c-2.37,2.71-4.87,5.31-7.22,8.04
			c-1.24,1.44-2.45,2.97-3.36,4.63c-2.66,4.88-6.53,8.29-11.52,10.7c-1.14,0.55-1.41,2.68-2.48,3.62
			c-5.59,4.95-11.44,9.53-18.83,11.57c-0.82,5.95-7.83,2.06-10.6,6.92c-1.75,3.06-8.62,3.25-13.23,4.59
			c-17.74,5.16-35.89,3.16-53.91,2.73c-5.35-0.13-11.67-0.64-15.69-3.53c-3.68-2.64-7.45-2.14-10.79-3.77
			c-4.81-2.35-9.16-5.64-13.71-8.52c-0.78-0.49-1.52-1.29-2.35-1.4c-6.1-0.82-8.54-6.32-12.6-9.73c-1.45-1.22-2.66-2.71-4.1-3.95
			c-4.39-3.76-8.94-7.24-11.44-12.86c-0.81-1.82-3.7-2.7-5.61-4.05c-0.48-0.34-1.25-0.82-1.24-1.23c0.04-5.06-4.46-7.39-6.48-11.16
			c-2.04-3.8-3.32-8.01-4.89-12.06c-0.23-0.6-0.06-1.79-0.33-1.88c-5.59-1.73-2.76-6.55-3.81-9.94c-0.58-1.87-1.77-3.54-2.57-5.34
			c-0.5-1.13-1.08-2.33-1.15-3.53c-0.25-4.49-0.03-9.02-0.51-13.48c-0.41-3.84-2.37-7.65-2.16-11.38c0.54-9.64,1.9-19.24,2.94-28.85
			c6.08-3.14,1.48-10.9,6.88-15.1c3.01-2.34,2.35-9.09,5.22-11.99c2.8-2.83,0.77-7.72,5.78-9.51c2.43-0.87,3.52-5.49,5.2-8.43
			c0.32-0.56,0.43-1.29,0.84-1.76c3.34-3.85,6.41-8.03,10.21-11.37c3.57-3.14,7.95-5.37,11.94-8.04c1.87-1.25,4.88-2.32,5.29-3.98
			c1.21-4.91,8.22-1.91,8.79-7.07c0.02-0.22,0.85-0.38,1.31-0.51c4.02-1.14,9.14-1.11,11.8-3.66c4.24-4.06,10.01-1.65,13.32-4.13
			c8.16-6.1,17.07-2.08,25.41-3.76C1595.44,580.24,1597.46,579.45,1599.62,578.79z"/>
	</g>
</g>
</svg>
